<svg xmlns="http://www.w3.org/2000/svg" viewBox="0 0 440 280">
  <defs>
    <linearGradient id="promoBg" x1="0%" y1="0%" x2="100%" y2="100%">
      <stop offset="0%" style="stop-color:#1e40af;stop-opacity:1" />
      <stop offset="100%" style="stop-color:#0f3a7d;stop-opacity:1" />
    </linearGradient>
    <linearGradient id="promoAccent" x1="0%" y1="0%" x2="100%" y2="100%">
      <stop offset="0%" style="stop-color:#10b981;stop-opacity:1" />
      <stop offset="100%" style="stop-color:#059669;stop-opacity:1" />
    </linearGradient>
  </defs>
  
  <!-- Main background -->
  <rect width="440" height="280" fill="url(#promoBg)"/>
  
  <!-- Left section - Icon representation -->
  <g transform="translate(50, 50)">
    <circle cx="50" cy="50" r="50" fill="rgba(255,255,255,0.1)"/>
    
    <!-- Code brackets -->
    <path d="M 25 30 L 40 50 L 25 70" stroke="#ffffff" stroke-width="6" fill="none" stroke-linecap="round" stroke-linejoin="round"/>
    <path d="M 75 30 L 60 50 L 75 70" stroke="#ffffff" stroke-width="6" fill="none" stroke-linecap="round" stroke-linejoin="round"/>
    
    <!-- Progress circle and checkmark -->
    <circle cx="50" cy="50" r="35" fill="none" stroke="rgba(255,255,255,0.2)" stroke-width="6"/>
    <circle cx="50" cy="50" r="35" fill="none" stroke="url(#promoAccent)" stroke-width="6" 
            stroke-dasharray="164.93" stroke-dashoffset="38" stroke-linecap="round" 
            transform="rotate(-90 50 50)"/>
    <path d="M 37 50 L 44 60 L 65 38" stroke="url(#promoAccent)" stroke-width="7" fill="none" 
          stroke-linecap="round" stroke-linejoin="round"/>
  </g>
  
  <!-- Right section - Feature highlights -->
  <g transform="translate(220, 60)">
    <!-- Coverage metrics indicator -->
    <rect x="0" y="0" width="200" height="30" rx="4" fill="rgba(255,255,255,0.1)"/>
    <circle cx="20" cy="15" r="6" fill="url(#promoAccent)"/>
    <text x="35" y="19" font-size="14" font-weight="bold" fill="#ffffff" font-family="Arial, sans-serif">Code Coverage</text>
    
    <!-- Test analysis indicator -->
    <rect x="0" y="50" width="200" height="30" rx="4" fill="rgba(255,255,255,0.1)"/>
    <circle cx="20" cy="65" r="6" fill="url(#promoAccent)"/>
    <text x="35" y="69" font-size="14" font-weight="bold" fill="#ffffff" font-family="Arial, sans-serif">Test Mapping</text>
    
    <!-- Export functionality indicator -->
    <rect x="0" y="100" width="200" height="30" rx="4" fill="rgba(255,255,255,0.1)"/>
    <circle cx="20" cy="115" r="6" fill="url(#promoAccent)"/>
    <text x="35" y="119" font-size="14" font-weight="bold" fill="#ffffff" font-family="Arial, sans-serif">CSV Export</text>

    <!-- Test execution indicator -->
    <rect x="0" y="150" width="200" height="30" rx="4" fill="rgba(255,255,255,0.1)"/>
    <circle cx="20" cy="165" r="6" fill="url(#promoAccent)"/>
    <text x="35" y="169" font-size="14" font-weight="bold" fill="#ffffff" font-family="Arial, sans-serif">Test Execution</text>
  </g>
  
  <!-- Bottom accent bar -->
  <rect x="0" y="250" width="440" height="30" fill="rgba(16, 185, 129, 0.15)"/>
  <circle cx="30" cy="265" r="5" fill="#10b981"/>
  <circle cx="60" cy="265" r="5" fill="#10b981"/>
  <circle cx="90" cy="265" r="5" fill="#10b981"/>
  <circle cx="120" cy="265" r="5" fill="#10b981"/>
</svg>
